<?xml version="1.0" encoding="utf-8"?>
<!-- Generator: Adobe Illustrator 18.0.0, SVG Export Plug-In . SVG Version: 6.00 Build 0)  -->
<!DOCTYPE svg PUBLIC "-//W3C//DTD SVG 1.1//EN" "http://www.w3.org/Graphics/SVG/1.1/DTD/svg11.dtd">
<svg version="1.1" xmlns="http://www.w3.org/2000/svg" xmlns:xlink="http://www.w3.org/1999/xlink" x="0px" y="0px"
	 viewBox="0 0 50 50" enable-background="new 0 0 50 50" xml:space="preserve">
<g id="Capa_2" display="none">
</g>
<g id="Capa_1">
	<circle fill="none" stroke="#2BBEE8" stroke-width="2" stroke-miterlimit="10" cx="25" cy="25" r="24"/>
	<circle fill="none" stroke="#2BBEE8" stroke-width="2" stroke-miterlimit="10" cx="25" cy="25" r="4"/>
	<path fill="none" stroke="#2BBEE8" stroke-width="2" stroke-miterlimit="10" d="M39.2,23h-0.8c-0.4,0-0.8-0.3-0.8-0.7
		c-0.3-1.4-0.8-2.6-1.5-3.7c-0.2-0.3-0.2-0.7,0.1-1l0.6-0.7c0.5-0.5,0.5-1.4,0-1.9l-1.7-1.7c-0.5-0.5-1.3-0.5-1.8,0l-0.8,0.7
		c-0.3,0.2-0.7,0.2-1,0.1c-1.1-0.7-2.3-1.2-3.7-1.5C27.3,12.4,27,12,27,11.6v-0.8c0-0.4-0.4-0.8-0.8-0.8h-2.4
		c-0.4,0-0.8,0.4-0.8,0.8v0.8c0,0.4-0.3,0.8-0.7,0.8c-1.4,0.3-2.6,0.8-3.7,1.5c-0.3,0.2-0.7,0.2-1-0.1l-0.7-0.6
		c-0.5-0.5-1.4-0.5-1.9,0l-1.7,1.7c-0.5,0.5-0.5,1.3,0,1.8l0.7,0.8c0.2,0.3,0.2,0.7,0.1,1c-0.7,1.1-1.2,2.3-1.5,3.7
		C12.4,22.7,12,23,11.6,23h-0.8c-0.4,0-0.8,0.4-0.8,0.8v2.4c0,0.4,0.4,0.8,0.8,0.8h0.8c0.4,0,0.8,0.3,0.8,0.7
		c0.3,1.4,0.8,2.6,1.5,3.7c0.2,0.3,0.2,0.7-0.1,1l-0.6,0.7c-0.5,0.5-0.5,1.4,0,1.9l1.7,1.7c0.5,0.5,1.3,0.5,1.8,0l0.8-0.7
		c0.3-0.2,0.7-0.2,1-0.1c1.1,0.7,2.3,1.2,3.7,1.5c0.4,0.1,0.7,0.4,0.7,0.8v0.8c0,0.4,0.4,0.8,0.8,0.8h2.4c0.4,0,0.8-0.4,0.8-0.8
		v-0.8c0-0.4,0.3-0.8,0.7-0.8c1.4-0.3,2.6-0.8,3.7-1.5c0.3-0.2,0.7-0.2,1,0.1l0.7,0.6c0.5,0.5,1.4,0.5,1.9,0l1.7-1.7
		c0.5-0.5,0.5-1.3,0-1.8l-0.7-0.8c-0.2-0.3-0.2-0.7-0.1-1c0.7-1.1,1.2-2.3,1.5-3.7c0.1-0.4,0.4-0.7,0.8-0.7h0.8
		c0.4,0,0.8-0.4,0.8-0.8v-2.4C40,23.4,39.6,23,39.2,23z"/>
</g>
</svg>
