<?xml version="1.0" encoding="utf-8"?>
<!-- Generator: Adobe Illustrator 18.0.0, SVG Export Plug-In . SVG Version: 6.00 Build 0)  -->
<!DOCTYPE svg PUBLIC "-//W3C//DTD SVG 1.1//EN" "http://www.w3.org/Graphics/SVG/1.1/DTD/svg11.dtd">
<svg version="1.1" xmlns="http://www.w3.org/2000/svg" xmlns:xlink="http://www.w3.org/1999/xlink" x="0px" y="0px"
	 viewBox="0 0 50 50" enable-background="new 0 0 50 50" xml:space="preserve">
<g id="Capa_2" display="none">
	<line display="inline" fill="none" stroke="#C1272D" stroke-miterlimit="10" x1="-0.5" y1="47" x2="-0.5" y2="1441"/>
</g>
<g id="Capa_1">
	<circle fill="none" stroke="#2BBEE8" stroke-width="2" stroke-miterlimit="10" cx="25" cy="25" r="24"/>
	<circle fill="none" stroke="#2BBEE8" stroke-width="2" stroke-miterlimit="10" cx="25" cy="25" r="4"/>
	<g>
		<g>
			
				<line fill="none" stroke="#2BBEE8" stroke-width="2" stroke-linecap="round" stroke-linejoin="round" x1="25" y1="18" x2="25" y2="10"/>
			<g>
				<path fill="#2BBEE8" d="M27.9,10.3L25.4,6c-0.2-0.3-0.7-0.3-0.8,0l-2.4,4.2c-0.2,0.3,0,0.7,0.4,0.7h4.9
					C27.8,11,28.1,10.6,27.9,10.3z"/>
			</g>
		</g>
		<g>
			
				<line fill="none" stroke="#2BBEE8" stroke-width="2" stroke-linecap="round" stroke-linejoin="round" x1="25" y1="32" x2="25" y2="40"/>
			<g>
				<path fill="#2BBEE8" d="M27.9,39.7L25.4,44c-0.2,0.3-0.7,0.3-0.8,0l-2.4-4.2c-0.2-0.3,0-0.7,0.4-0.7h4.9
					C27.8,39,28.1,39.4,27.9,39.7z"/>
			</g>
		</g>
	</g>
	<g>
		<g>
			
				<line fill="none" stroke="#2BBEE8" stroke-width="2" stroke-linecap="round" stroke-linejoin="round" x1="18" y1="25" x2="10" y2="25"/>
			<g>
				<path fill="#2BBEE8" d="M10.3,22.1L6,24.6c-0.3,0.2-0.3,0.7,0,0.8l4.2,2.4c0.3,0.2,0.7,0,0.7-0.4v-4.9
					C11,22.2,10.6,21.9,10.3,22.1z"/>
			</g>
		</g>
		<g>
			
				<line fill="none" stroke="#2BBEE8" stroke-width="2" stroke-linecap="round" stroke-linejoin="round" x1="32" y1="25" x2="40" y2="25"/>
			<g>
				<path fill="#2BBEE8" d="M39.7,22.1l4.2,2.4c0.3,0.2,0.3,0.7,0,0.8l-4.2,2.4c-0.3,0.2-0.7,0-0.7-0.4v-4.9
					C39,22.2,39.4,21.9,39.7,22.1z"/>
			</g>
		</g>
	</g>
</g>
</svg>
