<?xml version="1.0" encoding="utf-8"?>
<!-- Generator: Adobe Illustrator 18.0.0, SVG Export Plug-In . SVG Version: 6.00 Build 0)  -->
<!DOCTYPE svg PUBLIC "-//W3C//DTD SVG 1.1//EN" "http://www.w3.org/Graphics/SVG/1.1/DTD/svg11.dtd">
<svg version="1.1" xmlns="http://www.w3.org/2000/svg" xmlns:xlink="http://www.w3.org/1999/xlink" x="0px" y="0px"
	 viewBox="0 0 50 50" enable-background="new 0 0 50 50" xml:space="preserve">
<g id="Capa_2" display="none">
</g>
<g id="Capa_1">
	<circle fill="none" stroke="#2BBEE8" stroke-width="2" stroke-miterlimit="10" cx="25" cy="25" r="24"/>
	<path fill="none" stroke="#2BBEE8" stroke-width="2" stroke-miterlimit="10" d="M22.8,31.4l8.6-8.6c0.4-0.4,0.9-0.5,1.4-0.4
		c2,0.4,4.3-0.2,5.9-1.8c1.5-1.5,2.1-3.7,1.7-5.7c-0.1-0.4-0.5-0.5-0.8-0.2L37,17.2c-1,1-2.9,0.6-3.9-0.3c-1-1-1.3-2.9-0.3-3.9
		l2.6-2.6c0.3-0.3,0.1-0.7-0.2-0.7c-1.9-0.3-4.1,0.1-5.6,1.5c-1.7,1.6-2.3,4-1.9,6.1c0.1,0.5-0.1,1-0.4,1.4l-8.7,8.7
		c-0.4,0.4-0.9,0.5-1.4,0.4c-2-0.4-4.5,0.2-6.1,1.9c-1.4,1.5-1.9,3.6-1.5,5.6c0.1,0.4,0.5,0.5,0.8,0.2l2.6-2.6c1-1,2.9-0.6,3.9,0.3
		c1,1,1.3,2.9,0.3,3.9l-2.6,2.6c-0.3,0.3-0.1,0.7,0.2,0.7c2,0.3,4.2-0.1,5.7-1.6c1.6-1.6,2.2-3.9,1.8-5.9
		C22.3,32.3,22.4,31.8,22.8,31.4z"/>
	<g>
		<path fill="none" stroke="#2BBEE8" stroke-width="2" stroke-miterlimit="10" d="M28.7,25.6l2,2l0.7-0.7l7.4,7.4
			c0.8,0.8,0.8,2.1,0,2.9l-1.6,1.6c-0.8,0.8-2.1,0.8-2.9,0l-7.4-7.4l0.7-0.7l-2-2"/>
		<g>
			<line fill="none" stroke="#2BBEE8" stroke-width="2" stroke-miterlimit="10" x1="22.9" y1="22.9" x2="15.2" y2="15.2"/>
			<path fill="none" stroke="#2BBEE8" stroke-width="2" stroke-miterlimit="10" d="M15.5,15.5L15.5,15.5c-1.1,0-1.7,0-2.8,0
				l-2.4-2.4l2.8-2.8l2.4,2.4C15.5,13.8,15.5,14.4,15.5,15.5z"/>
		</g>
	</g>
</g>
</svg>
